PathFileType	4	(X/Y/Z)	/Users/niels/Desktop/University/Third Semester/Perception and Action/Exam/Gymnastics Motion Tracking/Code for Gym Tracking/Analyzed Data/Webcam_Backflip/id3_5_baseline_Sports2D/id3_5_baseline_Sports2D_px_person00.trc
DataRate	CameraRate	NumFrames	NumMarkers	Units	OrigDataRate	OrigDataStartFrame	OrigNumFrames
29.81132075471698	29.81132075471698	7	22	m	29.81132075471698	79	159
Frame#	Time	Hip			RHip			RKnee			RAnkle			RBigToe			RSmallToe			RHeel			LHip			LKnee			LAnkle			LBigToe			LSmallToe			LHeel			Neck			Head			Nose			RShoulder			RElbow			RWrist			LShoulder			LElbow			LWrist		
		X1	Y1	Z1	X2	Y2	Z2	X3	Y3	Z3	X4	Y4	Z4	X5	Y5	Z5	X6	Y6	Z6	X7	Y7	Z7	X8	Y8	Z8	X9	Y9	Z9	X10	Y10	Z10	X11	Y11	Z11	X12	Y12	Z12	X13	Y13	Z13	X14	Y14	Z14	X15	Y15	Z15	X16	Y16	Z16	X17	Y17	Z17	X18	Y18	Z18	X19	Y19	Z19	X20	Y20	Z20	X21	Y21	Z21	X22	Y22	Z22
79	2.65	0.9621422034408053	-0.6267234373195945	0.0	0.9615564116406863	-0.628580149376736	0.0	1.0551576502685676	-0.6914907466608302	0.0	1.0042554351157218	-0.7895809185824325	0.0	1.0457775751452214	-0.8113137284263523	0.0	1.0352594965048825	-0.811689713542257	0.0	0.988098461864164	-0.8023942499927206	0.0	0.9659272216191689	-0.6274588986418342	0.0	1.0439950459958889	-0.6881563856104633	0.0	0.9915174191339114	-0.7848117111189957	0.0	1.0309354092741236	-0.8002436457586986	0.0	1.0174474386357308	-0.8012636976730296	0.0	0.9766204306553962	-0.7922856112301104	0.0	1.0396524521426784	-0.5050675376476479	0.0	1.0872839243223154	-0.44665410190392735	0.0	1.0821361308411945	-0.491775189030034	0.0	1.018362745100784	-0.5152481137993963	0.0	1.0221224027117963	-0.5714562953082316	0.0	1.087482427260884	-0.5884997883757194	0.0	1.0345422746510622	-0.519209128603825	0.0	1.0588287827120206	-0.5646827338381992	0.0	1.1170526785366186	-0.573589263266091	0.0
80	2.6835443037974684	0.9597716362636715	-0.6046457426209138	0.0	0.9593509696773839	-0.6062084740876856	0.0	1.0600670176662836	-0.660879357877232	0.0	1.00528840447016	-0.7602637467324701	0.0	1.0456153594629323	-0.7855561199294372	0.0	1.0360846596483662	-0.7863709427512351	0.0	0.9892567810662654	-0.7732141471802126	0.0	0.9640160528731748	-0.6042589354496594	0.0	1.0501080205312538	-0.6580304467015049	0.0	0.9949505929998566	-0.7560583294148898	0.0	1.0338046043301061	-0.7752569580700889	0.0	1.0226758750511395	-0.7747496745758538	0.0	0.9786653493992722	-0.7647227507461685	0.0	1.0367315152453234	-0.48352379344224966	0.0	1.0858593403072594	-0.4265457958421194	0.0	1.079452462704518	-0.47047771132430233	0.0	1.0150924742471537	-0.49449228842566056	0.0	1.0204566604577585	-0.5558747907939514	0.0	1.0848034465569123	-0.5797281802481987	0.0	1.031359462668976	-0.4967988131775381	0.0	1.0543956809059145	-0.5442308187202146	0.0	1.1132722154361094	-0.5574125652278997	0.0
81	2.7170886075949365	0.9588811927254363	-0.5826616877172296	0.0	0.9584547150489985	-0.5838310585340661	0.0	1.0622916931027708	-0.6374684752828653	0.0	1.0051279084621092	-0.7376253798271887	0.0	1.0439997110091517	-0.7661250004606621	0.0	1.0350121226966713	-0.7669792933137423	0.0	0.9893082260728894	-0.7502256872746098	0.0	0.9636052673191715	-0.5811644671475288	0.0	1.053399750566079	-0.6348408395284355	0.0	0.9979191495157229	-0.7343095261942367	0.0	1.0359940399198166	-0.7572166003107426	0.0	1.026773003688339	-0.7557096060623288	0.0	0.980806169456869	-0.7440001654761617	0.0	1.032608447892785	-0.46015337049669514	0.0	1.0831398719079046	-0.4037212645201712	0.0	1.0756391519544501	-0.4473204301278162	0.0	1.0109665772201264	-0.47155336031574135	0.0	1.020361491441134	-0.5358428125710685	0.0	1.0853583141986862	-0.5620655922588811	0.0	1.0272904121387716	-0.472390933078621	0.0	1.0508572829987586	-0.5209399196134258	0.0	1.1107504555227723	-0.5350594075037345	0.0
82	2.750632911392405	0.9599000885863823	-0.5626977979766341	0.0	0.9591657531409181	-0.5633948222984745	0.0	1.0616965429765937	-0.6229778841913962	0.0	1.0031399874025788	-0.7232560348066281	0.0	1.0401733114800913	-0.7548919982979447	0.0	1.0313886510362298	-0.7553694426698946	0.0	0.987519787017113	-0.7351846735380531	0.0	0.9653619853391391	-0.5602099687869649	0.0	1.0540266815038093	-0.6203258828272883	0.0	1.0000535750127562	-0.720947259799393	0.0	1.037058142380132	-0.7476032010002234	0.0	1.02945112498316	-0.7454766064397276	0.0	0.9826269504148082	-0.7313983666801392	0.0	1.0270837367608883	-0.4369574889628141	0.0	1.0784481404719655	-0.37997662188770986	0.0	1.0704030040327697	-0.4241001217771359	0.0	1.0058670810147923	-0.44862517493001136	0.0	1.0218719155298635	-0.5129264402005339	0.0	1.0885502766816277	-0.5369582289797182	0.0	1.0220593570213068	-0.4481585583622868	0.0	1.0480252557857819	-0.4960125363801035	0.0	1.1090478074515946	-0.507618951376404	0.0
83	2.784177215189873	0.9628889112758556	-0.5460583532257157	0.0	0.9615692907807413	-0.5462030900784256	0.0	1.0583794043058732	-0.6166984759212035	0.0	0.9993835869721446	-0.7169241084340898	0.0	1.034428185356935	-0.7514149500688323	0.0	1.0255211736169498	-0.7513023954407315	0.0	0.9838945299915175	-0.7281389443409141	0.0	0.969451443308628	-0.5427648556472983	0.0	1.0522564870161346	-0.6138786076255747	0.0	1.0011819045218782	-0.7153255403935418	0.0	1.0368288440751408	-0.7452039387170524	0.0	1.0307573402086192	-0.7425799140909476	0.0	0.9839117608936102	-0.7263006694330818	0.0	1.0202943445329382	-0.4157247918505997	0.0	1.0714551868718636	-0.3570368366116826	0.0	1.0638229453914612	-0.4023890903878759	0.0	1.0000510668786518	-0.4276024247333509	0.0	1.0247017305545794	-0.48881218523312986	0.0	1.093198317769013	-0.5066593009128466	0.0	1.015572836403012	-0.42602757941889874	0.0	1.0455195443942868	-0.47094978924347153	0.0	1.1073954928932	-0.47702114924709704	0.0
84	2.8177215189873417	0.9675710511460668	-0.5335393121757352	0.0	0.9655634522700243	-0.533054888508453	0.0	1.0525919923983016	-0.6166040581591828	0.0	0.9944744307034143	-0.7174645745341797	0.0	1.0279030489639676	-0.7537555337747348	0.0	1.018552007597509	-0.7532025978486196	0.0	0.9790856762755513	-0.7282842799957093	0.0	0.9754299391529834	-0.5296034533011026	0.0	1.048595073544465	-0.6135128524868005	0.0	1.0013752589254468	-0.7156147165448439	0.0	1.0356098228420938	-0.7475118926151237	0.0	1.0309814588058608	-0.7443034347543847	0.0	0.9846630643421923	-0.7270474123625816	0.0	1.0126192070030628	-0.3979327820964464	0.0	1.06224684360268	-0.3363969693827317	0.0	1.056297881475158	-0.38340298752575586	0.0	0.9940124223587655	-0.40995153378605625	0.0	1.0281348434911581	-0.46510507132713763	0.0	1.097737172684908	-0.47374302947409686	0.0	1.0078717338545065	-0.40750167711246627	0.0	1.0428309579427135	-0.44730195149791363	0.0	1.104919506468736	-0.44560684829301744	0.0
85	2.85126582278481	0.9734493637589261	-0.5255477548621793	0.0	0.970839666671565	-0.5243836748868045	0.0	1.0447569090805762	-0.6204273090371947	0.0	0.9892192967233121	-0.723299906278147	0.0	1.0220024992313301	-0.7594440219315869	0.0	1.0119398006748266	-0.7589406635263874	0.0	0.9739791588408686	-0.7342909684564161	0.0	0.9824606054451006	-0.5210532729691233	0.0	1.0439680523465422	-0.6169202088934236	0.0	1.000699275226344	-0.7195543469832075	0.0	1.0338880415399774	-0.7520217490763962	0.0	1.0304449876400206	-0.748082732983435	0.0	0.9847260373716025	-0.7315298422019197	0.0	1.00456797513764	-0.38461232976736376	0.0	1.0513694741951598	-0.31926399829236574	0.0	1.0483699907899575	-0.36794117413035304	0.0	0.9882397050913944	-0.39661197643101964	0.0	1.0311525857324149	-0.443241385351421	0.0	1.1005836171909718	-0.44083903356911947	0.0	0.9992093980100353	-0.39358284228909124	0.0	1.0395165493341745	-0.42635280678714393	0.0	1.1010315423415729	-0.4157980694738485	0.0
